<svg id="Calque_1" data-name="Calque 1" xmlns="http://www.w3.org/2000/svg" viewBox="0 0 418.84 121.82"><defs><style>.cls-1{fill:#0f0f0f;}.cls-2{fill:#71b2cc;}</style></defs><title>logo</title><path class="cls-1" d="M46.1,252.33a16,16,0,0,1-1.63-.92,5.06,5.06,0,0,1-.22-8.34l.84-.62a5.2,5.2,0,0,1,6-.21c.31.19.62.37,1,.53a9.35,9.35,0,0,0,4.22,1,5.8,5.8,0,0,0,4.88-2.22,10,10,0,0,0,1.72-6.26v-34.6a5.07,5.07,0,0,1,5.06-5.06h1.25a5.07,5.07,0,0,1,5.06,5.06v34.64A22.54,22.54,0,0,1,72,245.65a14.91,14.91,0,0,1-6.34,6.52,20.9,20.9,0,0,1-10,2.25A21.08,21.08,0,0,1,46.1,252.33Z" transform="translate(-42.16 -195.03)"/><path class="cls-1" d="M98.79,251.75a18.46,18.46,0,0,1-7.47-7.52A23.24,23.24,0,0,1,88.68,233V216.48a23.21,23.21,0,0,1,2.64-11.26,18.49,18.49,0,0,1,7.47-7.53,24.66,24.66,0,0,1,22.28,0,18.49,18.49,0,0,1,7.47,7.53,23.21,23.21,0,0,1,2.64,11.26V233a23.24,23.24,0,0,1-2.64,11.26,18.46,18.46,0,0,1-7.47,7.52,24.57,24.57,0,0,1-22.28,0Zm16.34-9.56a8.54,8.54,0,0,0,3.46-3.58,11.3,11.3,0,0,0,1.22-5.36V216.2a11.27,11.27,0,0,0-1.22-5.36,8.54,8.54,0,0,0-3.46-3.58,11.36,11.36,0,0,0-10.4,0,8.54,8.54,0,0,0-3.46,3.58,11.27,11.27,0,0,0-1.22,5.36v17.05a11.3,11.3,0,0,0,1.22,5.36,8.54,8.54,0,0,0,3.46,3.58,11.36,11.36,0,0,0,10.4,0Z" transform="translate(-42.16 -195.03)"/><path class="cls-1" d="M149.91,195.63h5.18a5.06,5.06,0,0,1,4.55,2.85l20.26,41.73-1,1V200.69a5.07,5.07,0,0,1,5.06-5.06h.37a5.07,5.07,0,0,1,5.06,5.06v48a5.07,5.07,0,0,1-5.06,5.06h-5.28a5.06,5.06,0,0,1-4.54-2.83l-20.18-41.07,1-1v39.88a5.07,5.07,0,0,1-5.06,5.06h-.37a5.07,5.07,0,0,1-5.06-5.06v-48A5.07,5.07,0,0,1,149.91,195.63Z" transform="translate(-42.16 -195.03)"/><path class="cls-1" d="M224.43,195.63h0a5.06,5.06,0,0,1,4.72,3.25L247.53,247a5.05,5.05,0,0,1-4.72,6.86h-.87a5,5,0,0,1-4.77-3.38l-12.74-36.35-12.74,36.35a5.05,5.05,0,0,1-4.77,3.38h-.87a5.06,5.06,0,0,1-4.73-6.86l18.38-48.07A5.07,5.07,0,0,1,224.43,195.63Zm-10,38.3h20.5A5.06,5.06,0,0,1,240,239v.44a5.06,5.06,0,0,1-5.06,5.06h-20.5a5.06,5.06,0,0,1-5.06-5.06V239A5.06,5.06,0,0,1,214.44,233.93Z" transform="translate(-42.16 -195.03)"/><path class="cls-1" d="M255.69,195.63h32.54a5.06,5.06,0,0,1,5,5.06v.45a5.06,5.06,0,0,1-5,5.06H255.69a5.06,5.06,0,0,1-5.06-5.06v-.45A5.06,5.06,0,0,1,255.69,195.63Zm15.84,4.76h.85a5.07,5.07,0,0,1,5.06,5.06v43.31a5.06,5.06,0,0,1-5.06,5.05h-.85a5.06,5.06,0,0,1-5.06-5.05V205.45A5.07,5.07,0,0,1,271.53,200.39Z" transform="translate(-42.16 -195.03)"/><path class="cls-1" d="M307.61,195.63h.85a5.07,5.07,0,0,1,5.06,5.06v48.07a5.06,5.06,0,0,1-5.06,5.05h-.85a5.06,5.06,0,0,1-5.06-5.05V200.69A5.07,5.07,0,0,1,307.61,195.63Zm5.08,24.05h23.78a5.06,5.06,0,0,1,5.06,5.06v.45a5.06,5.06,0,0,1-5.06,5.06H312.69a5.06,5.06,0,0,1-5.05-5.06v-.45A5.06,5.06,0,0,1,312.69,219.68Zm26.77-24.05h.85a5.06,5.06,0,0,1,5.06,5.06v48.07a5.05,5.05,0,0,1-5.06,5.05h-.85a5,5,0,0,1-5-5.05V200.69A5.06,5.06,0,0,1,339.46,195.63Z" transform="translate(-42.16 -195.03)"/><path class="cls-1" d="M380.37,195.63h0a5.07,5.07,0,0,1,4.73,3.25L403.48,247a5.06,5.06,0,0,1-4.73,6.86h-.87a5.05,5.05,0,0,1-4.77-3.38l-12.74-36.35-12.74,36.35a5,5,0,0,1-4.77,3.38H362a5.05,5.05,0,0,1-4.72-6.86l18.38-48.07A5.06,5.06,0,0,1,380.37,195.63Zm-10,38.3h20.5a5.06,5.06,0,0,1,5.06,5.06v.44a5.06,5.06,0,0,1-5.06,5.06h-20.5a5.05,5.05,0,0,1-5.05-5.06V239A5.05,5.05,0,0,1,370.38,233.93Z" transform="translate(-42.16 -195.03)"/><path class="cls-1" d="M421.23,195.63h5.18a5.05,5.05,0,0,1,4.55,2.85l20.27,41.73-1,1V200.69a5.06,5.06,0,0,1,5.06-5.06h.36a5.06,5.06,0,0,1,5.06,5.06v48a5.06,5.06,0,0,1-5.06,5.06h-5.27a5.06,5.06,0,0,1-4.54-2.83L425.7,209.88l1-1v39.88a5.07,5.07,0,0,1-5.06,5.06h-.37a5.07,5.07,0,0,1-5.06-5.06v-48A5.07,5.07,0,0,1,421.23,195.63Z" transform="translate(-42.16 -195.03)"/><path class="cls-1" d="M148,283.72a5.06,5.06,0,0,1,5.06,5.06v6.3a24.09,24.09,0,0,1-2.62,11.43,18.61,18.61,0,0,1-7.43,7.64,22.31,22.31,0,0,1-11.12,2.7,23.87,23.87,0,0,1-11.23-2.54,18.15,18.15,0,0,1-7.52-7.18,21.32,21.32,0,0,1-2.66-10.77V279.2a23.92,23.92,0,0,1,2.62-11.41,18.59,18.59,0,0,1,7.42-7.62,22.32,22.32,0,0,1,11.13-2.7,21.59,21.59,0,0,1,9.6,2.14,20,20,0,0,1,7.34,6.06c.35.46.67.93,1,1.41a5,5,0,0,1-4.33,7.68h-1.38a5,5,0,0,1-4.12-2,7.1,7.1,0,0,0-1-1.15,9.1,9.1,0,0,0-3.24-2,10.82,10.82,0,0,0-3.86-.71,10,10,0,0,0-5.14,1.29,8.73,8.73,0,0,0-3.45,3.64,11.72,11.72,0,0,0-1.22,5.44v17.16a9.28,9.28,0,0,0,1.24,4.81,8.25,8.25,0,0,0,3.53,3.2,11.79,11.79,0,0,0,5.28,1.12,10.63,10.63,0,0,0,5.18-1.22,8.29,8.29,0,0,0,3.42-3.54,11.81,11.81,0,0,0,1.2-5.48v-1H138a5.06,5.06,0,0,1-5.06-5.06v-.45a5.05,5.05,0,0,1,5.06-5.06Z" transform="translate(-42.16 -195.03)"/><path class="cls-1" d="M174.87,314.31a16.87,16.87,0,0,1-7.24-7.4,25.52,25.52,0,0,1-2.48-11.7V263.13a5.05,5.05,0,0,1,5.06-5.06h.85a5.05,5.05,0,0,1,5.05,5.06v32.35c0,3.34.9,5.93,2.68,7.77s4.31,2.76,7.57,2.76,5.82-.92,7.62-2.76,2.7-4.43,2.7-7.77V263.13a5.06,5.06,0,0,1,5.06-5.06h.85a5.06,5.06,0,0,1,5.06,5.06v32.08a25.27,25.27,0,0,1-2.51,11.7,16.9,16.9,0,0,1-7.28,7.4,27.28,27.28,0,0,1-23,0Z" transform="translate(-42.16 -195.03)"/><path class="cls-1" d="M227.22,316.25H226a5.05,5.05,0,0,1-5.06-5.05V263.13a5.05,5.05,0,0,1,5.06-5.06h1.24a5.05,5.05,0,0,1,5.06,5.06V311.2A5.05,5.05,0,0,1,227.22,316.25Z" transform="translate(-42.16 -195.03)"/><path class="cls-1" d="M252.21,258.07h5.18a5.05,5.05,0,0,1,4.55,2.85l20.27,41.73-1,1V263.13a5.05,5.05,0,0,1,5.06-5.06h.37a5.05,5.05,0,0,1,5.05,5.06v48a5,5,0,0,1-5.05,5H281.4a5.05,5.05,0,0,1-4.54-2.82l-20.18-41.07,1-1v39.88a5.05,5.05,0,0,1-5.06,5h-.37a5,5,0,0,1-5.05-5v-48A5.05,5.05,0,0,1,252.21,258.07Z" transform="translate(-42.16 -195.03)"/><path class="cls-1" d="M326.73,258.07h0a5.06,5.06,0,0,1,4.73,3.25l18.38,48.07a5.05,5.05,0,0,1-4.72,6.86h-.87a5.06,5.06,0,0,1-4.78-3.38l-12.74-36.35L314,312.87a5,5,0,0,1-4.77,3.38h-.87a5.05,5.05,0,0,1-4.72-6.86L322,261.32A5.06,5.06,0,0,1,326.73,258.07Zm-10,38.29h20.49a5.06,5.06,0,0,1,5.06,5.06v.45a5.05,5.05,0,0,1-5.06,5.06H316.75a5.05,5.05,0,0,1-5.06-5.06v-.45A5.06,5.06,0,0,1,316.75,296.36Z" transform="translate(-42.16 -195.03)"/><path class="cls-1" d="M367.59,258h.85a5.07,5.07,0,0,1,5.06,5.06V311.2a5.06,5.06,0,0,1-5.06,5.05h-.85a5.06,5.06,0,0,1-5.06-5.05V263.09A5.07,5.07,0,0,1,367.59,258Zm-.69,29.31a5.05,5.05,0,0,1,5.05-5.06h15.19a5.32,5.32,0,0,0,3-.84,5.5,5.5,0,0,0,2-2.4,9.34,9.34,0,0,0,.74-3.6,8.82,8.82,0,0,0-.7-3.6,5.5,5.5,0,0,0-2-2.4,5.39,5.39,0,0,0-3-.85H372a5,5,0,0,1-5.05-5v-5a.53.53,0,0,1,.53-.53H388a16.24,16.24,0,0,1,8.45,2.16,14.6,14.6,0,0,1,5.64,6.1,21.91,21.91,0,0,1,0,18.29,14.52,14.52,0,0,1-5.66,6.1,16.27,16.27,0,0,1-8.43,2.16H372a5,5,0,0,1-5.05-5Zm14.56,3.34,6-.94a5,5,0,0,1,5.16,2.46l9.55,16.46a5.06,5.06,0,0,1-4.38,7.59h-1.54a5.06,5.06,0,0,1-4.41-2.58l-11.53-20.58A1.63,1.63,0,0,1,381.46,290.68Z" transform="translate(-42.16 -195.03)"/><path class="cls-1" d="M423.88,258.07h.85a5.06,5.06,0,0,1,5.06,5.06V311.2a5.06,5.06,0,0,1-5.06,5.05h-.85a5.06,5.06,0,0,1-5.06-5.05V263.13A5.06,5.06,0,0,1,423.88,258.07Zm.47,52.68a5.05,5.05,0,0,1,5-5.06h8.91q5.4,0,8.36-2.6a9.27,9.27,0,0,0,3-7.36V278.6a9.25,9.25,0,0,0-3-7.36q-3-2.61-8.36-2.61H429.4a5,5,0,0,1-5-5.05v-4.8a.71.71,0,0,1,.71-.71h13a28.76,28.76,0,0,1,12.43,2.44,17.36,17.36,0,0,1,7.82,7.12A22.38,22.38,0,0,1,461,278.92v16.49a22.36,22.36,0,0,1-2.58,11,17.58,17.58,0,0,1-7.74,7.28,27.83,27.83,0,0,1-12.65,2.6H425.32a1,1,0,0,1-1-1Z" transform="translate(-42.16 -195.03)"/><circle class="cls-2" cx="44.4" cy="108.5" r="9.5"/></svg>